<?xml version="1.0" standalone="no"?>
<!DOCTYPE svg PUBLIC "-//W3C//DTD SVG 20010904//EN"
 "http://www.w3.org/TR/2001/REC-SVG-20010904/DTD/svg10.dtd">
<svg version="1.0" xmlns="http://www.w3.org/2000/svg"
 width="800.000000pt" height="800.000000pt" viewBox="0 0 800.000000 800.000000"
 preserveAspectRatio="xMidYMid meet">
<metadata>
Created by potrace 1.11, written by Peter Selinger 2001-2013
</metadata>
<g transform="translate(0.000000,800.000000) scale(0.100000,-0.100000)"
fill="#000000" stroke="none">
<path d="M3886 7575 c-26 -28 -38 -69 -39 -128 0 -63 12 -92 53 -127 41 -36
53 -70 24 -70 -8 0 -28 14 -43 31 -33 36 -38 29 -35 -49 2 -62 15 -80 66 -88
32 -6 38 -3 62 29 21 28 28 49 31 96 5 84 -11 128 -56 158 -22 14 -36 31 -35
41 4 27 33 26 51 -2 24 -37 35 -23 35 43 0 64 -9 77 -58 87 -25 5 -35 1 -56
-21z"/>
<path d="M5427 7576 c-58 -58 -70 -276 -21 -383 24 -53 73 -68 114 -35 18 15
22 28 21 81 0 60 -9 90 -18 64 -3 -7 -13 -23 -23 -35 -18 -22 -20 -22 -36 -6
-26 25 -27 189 -2 214 14 14 20 15 32 4 9 -7 16 -18 16 -25 0 -7 7 -15 15 -19
16 -6 19 6 16 84 -3 74 -65 105 -114 56z"/>
<path d="M5933 7578 c-34 -38 -47 -94 -37 -170 5 -45 23 -70 78 -116 17 -14
11 -42 -10 -42 -7 0 -23 13 -35 30 -12 16 -26 27 -31 24 -4 -3 -8 -33 -8 -67
0 -59 2 -64 29 -80 75 -44 131 13 131 134 0 69 -17 108 -60 139 -32 23 -39 47
-15 56 8 4 25 -6 39 -23 28 -31 29 -30 30 52 1 43 -2 53 -24 67 -34 24 -62 22
-87 -4z"/>
<path d="M6141 7576 c-65 -69 -66 -324 -2 -413 37 -51 100 -15 127 73 16 50
20 170 9 234 -10 56 -43 117 -68 124 -35 9 -42 7 -66 -18z m72 -193 c1 -85 -8
-133 -23 -133 -28 0 -43 156 -20 214 10 27 12 28 27 13 12 -11 16 -36 16 -94z"/>
<path d="M6376 7575 c-67 -72 -67 -338 0 -410 27 -30 62 -32 95 -6 21 16 24
26 22 77 -1 33 -2 62 -2 66 -2 14 -27 -3 -36 -24 -30 -65 -66 1 -61 111 3 52
9 78 21 90 15 15 17 15 31 -4 9 -11 19 -27 24 -35 14 -25 22 -4 22 60 0 69
-10 86 -59 96 -26 5 -36 2 -57 -21z"/>
<path d="M845 7533 c-4 -32 -9 -66 -11 -77 -2 -11 -6 -38 -9 -61 -4 -22 -8
-52 -10 -66 -3 -14 -7 -43 -10 -64 -2 -20 -7 -55 -10 -76 l-6 -39 36 0 c30 0
35 3 35 23 0 29 11 67 19 67 18 -1 30 -20 33 -53 2 -35 4 -37 35 -37 l34 0 -6
53 c-4 28 -8 61 -10 72 -2 11 -6 43 -9 70 -4 28 -9 57 -11 65 -2 8 -7 35 -10
60 -15 124 -14 120 -50 120 -32 0 -33 -1 -40 -57z m42 -190 c-3 -10 -5 -4 -5
12 0 17 2 24 5 18 2 -7 2 -21 0 -30z"/>
<path d="M1026 7378 c1 -117 2 -216 3 -220 1 -10 83 -11 106 -2 42 17 66 133
41 205 -9 25 -11 51 -6 67 11 39 3 111 -15 138 -13 21 -23 24 -73 24 l-57 0 1
-212z m84 71 c0 -10 -4 -19 -10 -19 -5 0 -10 12 -10 26 0 14 4 23 10 19 6 -3
10 -15 10 -26z m5 -154 c0 -16 -6 -30 -12 -32 -9 -3 -13 7 -13 32 0 25 4 35
13 33 6 -3 12 -17 12 -33z"/>
<path d="M1240 7370 l0 -220 70 0 70 0 0 55 0 55 -38 0 c-41 0 -41 1 -33 63 1
4 14 7 30 7 33 0 38 9 37 65 -1 38 -3 40 -36 45 -49 7 -47 34 3 38 l37 3 0 55
0 54 -70 0 -70 0 0 -220z"/>
<path d="M1435 7373 l1 -218 32 -3 c35 -4 34 -4 34 66 -1 53 13 46 31 -16 13
-45 16 -47 54 -50 l40 -3 -30 91 c-28 83 -29 94 -18 127 20 54 17 146 -6 185
-18 31 -23 33 -79 36 l-59 3 0 -218z m91 92 c7 -18 -4 -70 -13 -61 -11 11 -13
76 -2 76 5 0 12 -7 15 -15z"/>
<path d="M1660 7370 l0 -220 46 0 c25 0 54 5 66 11 77 41 89 323 18 399 -24
26 -35 30 -79 30 l-51 0 0 -220z m100 91 c5 -11 10 -52 10 -91 0 -73 -11 -110
-33 -110 -9 0 -12 30 -12 110 0 80 3 110 12 110 7 0 17 -9 23 -19z"/>
<path d="M1890 7370 l0 -220 70 0 70 0 0 54 0 55 -37 3 c-35 3 -38 5 -38 33 1
26 5 30 30 33 37 5 43 13 41 65 -2 40 -4 42 -35 47 -23 3 -35 11 -37 23 -2 14
5 17 37 17 l39 0 0 55 0 55 -70 0 -70 0 0 -220z"/>
<path d="M2090 7370 l0 -220 70 0 70 0 0 55 0 55 -38 0 c-36 0 -38 1 -37 33 1
29 4 32 36 35 l36 3 -1 52 c-2 51 -2 52 -36 57 -49 7 -47 34 3 38 l37 3 0 55
0 54 -70 0 -70 0 0 -220z"/>
<path d="M2289 7588 c-1 -2 -2 -101 -3 -221 l-1 -217 32 0 31 0 0 63 c1 122 3
125 26 32 22 -88 23 -90 54 -93 l32 -3 0 221 0 221 -32 -3 -33 -3 1 -68 c0
-70 -8 -71 -20 -2 -12 72 -15 75 -52 75 -19 0 -34 -1 -35 -2z"/>
<path d="M2625 7412 c0 -152 3 -185 19 -220 34 -75 114 -64 136 17 9 36 13
152 11 324 l-1 58 -32 -3 -32 -3 -1 -162 c0 -89 -3 -165 -7 -168 -22 -22 -28
17 -28 171 l0 164 -33 0 -33 0 1 -178z"/>
<path d="M2859 7583 c-4 -24 -4 -410 -1 -420 2 -7 17 -13 32 -13 l28 0 -1 90
c-1 49 2 92 6 95 4 3 5 2 3 -1 -2 -3 7 -43 19 -89 13 -46 21 -86 17 -89 -3 -3
11 -6 31 -6 l37 0 0 220 0 220 -30 0 c-32 0 -32 -1 -33 -67 0 -53 -12 -56 -21
-5 -13 69 -15 72 -52 72 -19 0 -35 -3 -35 -7z"/>
<path d="M3092 7370 l0 -220 33 0 34 0 -1 220 0 220 -33 0 -32 0 -1 -220z"/>
<path d="M3203 7573 c5 -15 19 -105 22 -138 1 -5 5 -30 9 -55 4 -25 9 -56 11
-70 2 -14 7 -50 11 -80 4 -30 8 -59 8 -65 1 -5 15 -11 33 -13 36 -4 36 -4 58
158 3 25 8 56 10 70 2 14 6 43 10 65 3 22 9 64 14 93 l8 52 -33 0 c-25 0 -34
-4 -35 -17 0 -10 -3 -27 -5 -38 -2 -11 -7 -42 -10 -70 -6 -50 -19 -81 -20 -47
-1 9 -4 42 -9 72 -4 30 -9 64 -10 75 -1 15 -10 21 -39 23 -32 3 -37 1 -33 -15z"/>
<path d="M3437 7583 c-2 -5 -3 -102 -3 -218 l1 -210 71 -3 71 -3 -1 53 -1 53
-38 3 c-35 3 -37 5 -37 38 0 32 2 34 35 34 l35 0 0 55 0 55 -35 0 c-28 0 -35
4 -35 20 0 16 7 20 38 20 l37 0 0 55 0 55 -67 0 c-37 0 -69 -3 -71 -7z"/>
<path d="M3638 7578 c-2 -7 -4 -105 -3 -218 l0 -205 33 -3 c35 -4 34 -6 34 78
l-1 55 21 -55 c11 -30 22 -61 24 -67 2 -8 20 -13 44 -13 l40 0 -33 93 c-31 86
-32 94 -19 122 24 47 20 156 -7 194 -20 28 -28 31 -76 31 -33 0 -54 -5 -57
-12z m87 -133 c0 -16 -5 -30 -11 -32 -8 -3 -12 9 -12 32 0 23 4 35 12 32 6 -2
11 -16 11 -32z"/>
<path d="M4063 7370 l0 -220 33 0 34 0 0 220 0 220 -34 0 -34 0 1 -220z"/>
<path d="M4171 7536 c1 -52 3 -55 28 -58 l26 -3 0 -162 -1 -163 33 0 33 0 0
165 0 165 25 0 c24 0 25 3 25 55 l0 55 -85 0 -84 0 0 -54z"/>
<path d="M4364 7573 c7 -24 36 -138 41 -160 1 -10 7 -36 13 -58 5 -22 9 -77 8
-122 l-2 -83 36 0 35 0 -3 83 c-2 61 3 106 18 168 12 46 23 91 25 100 2 9 8
33 13 53 l10 36 -38 0 c-38 0 -39 -1 -46 -45 -3 -25 -11 -48 -18 -52 -6 -3 -8
-3 -5 1 4 4 1 26 -6 49 -11 39 -15 42 -49 45 -33 3 -37 1 -32 -15z"/>
<path d="M4709 7588 c-1 -2 -2 -101 -3 -221 l-1 -217 40 0 c63 0 81 9 103 48
64 115 37 365 -42 386 -21 6 -95 8 -97 4z m97 -137 c25 -49 5 -191 -27 -191
-4 0 -8 50 -8 111 1 112 9 132 35 80z"/>
<path d="M4979 7588 c-3 -15 -9 -51 -14 -92 -4 -27 -9 -58 -11 -70 -2 -12 -6
-41 -9 -66 -3 -25 -7 -52 -10 -60 -2 -8 -7 -42 -10 -75 -4 -32 -9 -63 -11 -67
-3 -4 11 -8 30 -8 22 0 36 5 37 13 1 23 9 61 15 66 15 15 34 7 35 -15 1 -13 3
-28 4 -34 1 -5 3 -14 4 -20 0 -5 17 -10 37 -10 34 0 35 2 30 28 -4 15 -8 41
-10 57 -10 74 -19 132 -22 150 -2 11 -7 38 -9 60 -19 144 -18 140 -53 143 -17
2 -32 2 -33 0z m34 -238 c3 -11 1 -18 -4 -14 -5 3 -9 12 -9 20 0 20 7 17 13
-6z"/>
<path d="M5150 7370 l0 -220 30 0 c34 0 33 -5 30 110 -2 82 4 102 13 50 3 -14
13 -56 22 -93 17 -67 18 -68 49 -65 l31 3 0 215 0 215 -33 3 -32 3 -1 -73 c-1
-75 -6 -70 -24 26 -8 42 -12 46 -51 46 l-34 0 0 -220z"/>
<path d="M5598 7583 c-3 -5 -4 -102 -4 -218 l1 -210 71 -3 70 -3 0 56 0 55
-38 0 c-37 0 -38 1 -38 35 0 33 2 35 35 35 l35 0 0 55 0 55 -35 0 c-28 0 -35
4 -35 20 0 16 7 20 38 20 l37 0 1 55 1 55 -68 0 c-37 0 -69 -3 -71 -7z"/>
<path d="M6550 7558 c-1 -82 -1 -346 -1 -376 1 -31 3 -33 33 -30 l32 3 1 205
c1 113 -1 211 -3 218 -2 6 -17 12 -33 12 -26 0 -29 -3 -29 -32z"/>
<path d="M6680 7370 l0 -220 70 0 70 0 0 55 0 55 -38 0 c-41 0 -41 1 -33 63 1
4 14 7 30 7 37 0 42 15 32 103 -1 4 -14 7 -29 7 -34 0 -43 7 -35 26 3 8 19 14
39 14 l34 0 0 55 0 55 -70 0 -70 0 0 -220z"/>
<path d="M6856 7538 c1 -49 3 -53 28 -56 l26 -3 0 -165 0 -165 32 3 33 3 0
160 0 160 26 5 c23 5 25 9 26 58 l0 52 -86 0 -86 0 1 -52z"/>
<path d="M7050 7578 c0 -7 14 -65 30 -128 23 -87 30 -137 30 -207 l0 -93 33 0
34 0 1 93 c0 65 8 123 27 197 15 58 29 115 32 128 5 20 2 22 -31 22 -30 0 -36
-4 -41 -25 -13 -64 -18 -79 -21 -70 -1 6 -8 29 -14 53 -10 39 -13 42 -45 42
-22 0 -35 -5 -35 -12z"/>
<path d="M930 7034 c-55 -23 -118 -92 -140 -152 -20 -52 -20 -79 -20 -1387 0
-1273 1 -1337 18 -1383 30 -78 78 -139 135 -172 l52 -30 1395 0 1395 1 55 37
c36 25 58 47 64 67 5 17 17 51 27 77 15 38 19 74 19 187 l0 141 -80 0 c-89 0
-120 17 -120 65 0 29 -25 73 -54 94 -17 13 -18 22 -11 110 5 53 9 175 9 271 1
128 5 185 16 213 11 30 12 42 2 57 -7 11 -12 32 -12 47 0 16 -10 44 -22 63
-11 19 -41 80 -65 135 -33 77 -43 112 -43 153 0 29 -5 63 -12 75 -17 31 -29
107 -35 210 l-4 87 -46 38 c-24 20 -53 53 -63 73 -26 49 -73 95 -107 103 -40
10 -171 74 -220 107 -23 16 -49 29 -58 29 -25 0 -97 39 -131 72 -18 16 -34 25
-38 20 -3 -5 16 -63 43 -129 27 -65 84 -204 126 -308 43 -105 92 -226 110
-270 18 -44 69 -168 113 -275 43 -107 125 -307 182 -445 193 -472 210 -517
204 -526 -3 -5 -183 -9 -423 -9 -323 0 -421 3 -428 13 -10 12 -39 85 -103 257
-18 47 -37 91 -42 98 -8 9 -67 12 -232 12 -121 0 -226 -4 -232 -8 -17 -11 -31
-42 -85 -189 -27 -76 -57 -148 -65 -160 l-14 -23 -411 0 c-349 0 -410 2 -415
15 -3 8 19 74 50 147 30 73 83 201 116 283 34 83 89 215 122 295 33 80 83 204
113 275 230 564 289 707 310 755 13 30 38 91 55 135 17 44 39 86 48 93 13 10
106 12 412 12 236 -1 396 3 398 8 2 6 -12 23 -31 38 -19 16 -69 68 -112 117
-43 48 -85 87 -95 87 -19 0 -125 -48 -172 -78 -42 -26 -62 -8 -66 57 -3 51 -2
54 41 94 116 108 166 147 190 147 28 0 108 -61 119 -91 4 -10 24 -29 45 -42
21 -14 47 -34 58 -47 11 -12 38 -31 60 -42 22 -12 56 -35 75 -52 76 -67 144
-105 210 -117 36 -6 81 -17 100 -24 19 -8 64 -16 100 -18 36 -2 88 -11 115
-20 67 -21 166 -37 245 -40 55 -2 74 3 126 29 33 17 77 37 97 43 l37 13 0 159
c0 152 -1 163 -25 203 -30 51 -68 87 -120 115 l-40 21 -1390 0 c-1217 -1
-1394 -3 -1425 -16z"/>
<path d="M4353 7036 c-18 -6 -33 -14 -33 -19 0 -4 -4 -6 -9 -3 -25 16 -161
-150 -145 -176 3 -5 1 -8 -4 -8 -13 0 -11 -113 2 -122 7 -5 7 -8 -1 -8 -7 0
-13 -7 -13 -15 0 -18 2 -18 34 -4 14 7 23 16 19 22 -3 6 -1 7 5 3 6 -3 16 0
24 7 7 8 19 12 26 9 6 -2 12 1 12 7 0 6 3 10 8 10 17 -3 31 2 44 14 19 19 88
60 88 52 0 -6 31 26 65 69 11 14 26 25 32 26 7 0 35 16 62 35 26 19 54 35 61
35 7 0 25 12 40 28 15 15 36 32 46 38 24 14 -315 14 -363 0z"/>
<path d="M4834 6983 c-1 -126 -83 -273 -152 -273 -17 0 -34 5 -37 10 -13 22
-37 7 -122 -78 -52 -52 -107 -97 -136 -110 -27 -13 -52 -33 -59 -47 -6 -14
-15 -25 -20 -25 -15 0 -129 -112 -144 -142 -15 -29 -20 -183 -6 -192 5 -3 42
29 83 70 41 42 91 87 112 100 36 24 37 26 37 85 0 52 2 60 18 57 9 -2 18 -13
20 -26 5 -31 45 -29 66 3 18 28 36 33 36 10 0 -20 19 -19 41 1 20 18 46 13 55
-11 8 -20 -21 -52 -68 -76 -48 -24 -78 -64 -78 -103 0 -17 -8 -43 -17 -56 -10
-14 -33 -65 -52 -115 -18 -49 -46 -124 -61 -165 -66 -175 -75 -194 -122 -246
-63 -69 -86 -137 -50 -152 54 -23 83 -50 98 -89 32 -82 2 -176 -62 -196 -68
-22 -64 13 -64 -538 0 -307 4 -517 10 -547 6 -26 25 -72 43 -102 27 -45 44
-60 97 -87 l64 -33 1364 0 c1324 0 1364 1 1405 19 75 35 137 115 161 209 14
57 16 200 16 1373 l0 1308 -24 54 c-12 29 -44 73 -70 98 -86 84 -5 79 -1267
79 l-1114 0 -1 -67z m691 -495 c3 -13 6 -320 8 -683 l2 -660 26 -50 c30 -59
71 -89 141 -105 126 -27 230 31 270 149 9 26 14 213 18 701 l5 665 418 3 417
2 9 -22 c5 -13 7 -322 6 -688 l-3 -665 -26 -94 c-34 -122 -75 -196 -154 -282
-138 -149 -326 -237 -582 -274 -124 -17 -483 -20 -610 -5 -183 23 -370 88
-496 172 -169 113 -268 277 -294 488 -11 90 -15 1326 -4 1354 5 14 52 16 425
16 l419 0 5 -22z"/>
<path d="M2350 5524 c-34 -78 -62 -173 -55 -184 7 -12 142 -14 149 -2 6 9 -55
216 -67 228 -3 4 -16 -15 -27 -42z"/>
<path d="M3918 4754 c-5 -7 -10 -29 -13 -49 -6 -50 -15 -77 -31 -95 -17 -20
-34 -95 -24 -110 7 -11 66 -18 75 -8 3 3 4 66 3 139 -2 74 -6 129 -10 123z"/>
<path d="M955 3680 c-3 -6 -25 -19 -48 -29 -51 -23 -65 -38 -106 -113 l-31
-57 0 -1398 0 -1398 38 -44 c29 -34 50 -47 87 -57 40 -10 331 -13 1446 -14
1230 0 1398 2 1409 15 7 8 18 15 24 15 16 0 86 69 86 85 0 7 7 18 15 25 13 11
15 115 15 827 0 509 -4 821 -10 833 -5 10 -21 20 -34 24 -14 3 -28 16 -32 29
-4 12 -19 37 -35 54 -15 18 -31 50 -34 70 -3 21 -11 56 -16 78 -6 22 -13 56
-15 75 -12 89 -17 93 -128 111 -60 10 -108 31 -210 93 -63 38 -186 81 -252 89
-22 3 -58 16 -80 29 -21 14 -55 30 -75 37 -19 6 -53 29 -74 51 -32 33 -40 48
-40 79 0 77 44 90 150 42 36 -16 86 -47 112 -69 47 -38 184 -92 235 -92 11 0
37 -4 57 -9 126 -33 201 -51 236 -56 21 -4 52 -13 67 -21 15 -8 36 -14 47 -14
10 0 43 -11 73 -25 29 -14 59 -25 66 -25 15 0 17 345 2 385 -11 30 -29 30
-115 5 -75 -22 -104 -24 -111 -5 -4 9 -2 21 5 28 31 31 -9 36 -76 11 -35 -14
-46 -14 -58 -4 -31 26 -14 52 49 72 49 16 82 19 183 16 l123 -3 0 37 c0 35
-34 112 -66 149 -8 8 -34 25 -59 38 -24 12 -47 26 -50 32 -9 13 -2762 12
-2770 -1z m1418 -520 c173 -10 290 -28 376 -57 259 -86 453 -256 571 -498 82
-170 105 -269 104 -455 -1 -124 -4 -159 -27 -243 -65 -239 -214 -447 -410
-575 -161 -104 -307 -148 -557 -168 -176 -14 -913 -20 -944 -8 -14 6 -16 103
-16 1004 0 943 1 999 18 1003 35 9 717 7 885 -3z"/>
<path d="M2192 2163 l3 -488 89 -3 c80 -3 94 0 151 26 82 39 135 88 174 161
57 108 62 132 62 306 0 149 -2 165 -26 230 -66 174 -182 255 -365 255 l-90 0
2 -487z"/>
<path d="M4380 3669 c-51 -28 -125 -113 -138 -158 -7 -21 -12 -55 -12 -76 0
-42 34 -105 56 -105 8 0 27 -6 42 -14 18 -9 68 -15 142 -17 112 -3 115 -2 118
19 3 18 -3 23 -28 28 -30 6 -80 62 -80 90 0 6 -11 16 -25 22 -31 14 -58 66
-49 95 7 26 43 67 58 67 17 0 76 44 76 58 0 21 -119 14 -160 -9z"/>
<path d="M4740 3681 c0 -5 7 -14 15 -21 8 -6 17 -22 21 -33 4 -12 19 -33 35
-47 25 -22 28 -33 31 -95 l3 -69 -34 -17 c-18 -8 -37 -22 -41 -30 -11 -20 -1
-71 19 -98 l18 -23 42 21 c23 12 75 35 116 50 75 29 186 106 206 142 6 11 51
47 100 79 87 58 179 131 179 144 0 3 -160 6 -355 6 -197 0 -355 -4 -355 -9z"/>
<path d="M5800 3675 c-7 -8 -21 -15 -31 -15 -24 0 -24 -12 1 -35 21 -19 26
-40 12 -49 -10 -6 -164 18 -181 28 -7 5 -29 5 -49 1 -29 -5 -56 -26 -120 -91
-46 -47 -100 -95 -121 -108 -20 -13 -63 -47 -94 -76 -32 -29 -104 -85 -160
-124 l-102 -72 -6 -109 c-7 -127 -11 -142 -72 -262 -51 -100 -55 -115 -67
-274 -5 -64 -14 -160 -21 -215 -30 -242 -21 -406 25 -469 29 -39 50 -91 41
-104 -3 -6 -15 -11 -25 -11 -10 0 -22 -4 -25 -10 -3 -5 -33 -10 -66 -10 -43 0
-59 -4 -59 -13 0 -35 -87 -66 -105 -37 -15 25 -26 8 -20 -31 4 -22 8 -59 10
-82 3 -65 24 -135 64 -222 59 -126 86 -249 70 -312 -24 -92 -42 -110 -100
-101 -22 3 -24 9 -29 74 -4 57 -11 79 -35 114 -58 83 -65 95 -65 115 1 11 7
29 15 39 19 25 16 34 -62 194 -58 118 -66 143 -75 220 -5 48 -9 113 -9 144 1
55 0 58 -36 83 -46 31 -61 31 -68 3 -3 -13 -4 -268 -3 -568 l3 -545 35 -50
c42 -61 48 -67 95 -99 l38 -26 1397 0 c1230 0 1399 2 1410 15 7 8 18 15 24 15
16 0 86 69 86 85 0 7 7 18 15 25 13 11 15 175 13 1419 l-3 1406 -30 44 c-17
25 -49 54 -74 67 -24 13 -49 28 -55 34 -7 7 -233 10 -692 10 -594 0 -683 -2
-694 -15z m310 -521 c136 -13 451 -94 543 -141 l27 -14 -2 -272 -3 -272 -111
-3 c-106 -3 -112 -2 -150 24 -21 15 -59 41 -83 57 -104 71 -256 118 -386 120
-144 2 -215 -33 -215 -103 0 -23 7 -43 19 -54 19 -18 162 -66 196 -66 33 0
257 -58 337 -86 216 -77 357 -186 425 -330 36 -76 38 -83 41 -206 3 -79 0
-146 -7 -176 -48 -188 -220 -371 -433 -459 -145 -60 -228 -74 -450 -80 -125
-3 -243 -1 -300 6 -205 24 -552 133 -578 180 -15 29 -14 523 2 539 8 8 49 12
118 12 l105 0 75 -51 c181 -123 371 -189 542 -189 128 1 188 35 188 109 0 67
-44 88 -277 137 -135 28 -288 76 -378 118 -256 121 -365 284 -365 541 0 173
49 285 182 416 175 172 465 266 783 253 50 -3 119 -7 155 -10z"/>
<path d="M4230 3021 c0 -214 -6 -201 87 -201 40 0 62 5 80 20 14 11 35 20 47
20 38 0 65 12 71 31 7 22 -14 221 -25 232 -4 5 -23 12 -41 17 -19 5 -72 23
-119 39 -46 17 -88 31 -92 31 -4 0 -8 -85 -8 -189z"/>
</g>
</svg>
